<svg xmlns="http://www.w3.org/2000/svg" viewBox="0 0 200 240" role="img" aria-label="Strektegning av et brudepar">
  <defs>
    <filter id="ink" x="-5%" y="-5%" width="110%" height="110%">
      <feTurbulence type="fractalNoise" baseFrequency="0.9" numOctaves="2" seed="11" result="n"/>
      <feDisplacementMap in="SourceGraphic" in2="n" scale="1.3"/>
    </filter>
  </defs>
  <g filter="url(#ink)" fill="none" stroke="#2b2724" stroke-width="1.3" stroke-linecap="round" stroke-linejoin="round">
    <!-- groom -->
    <circle cx="84" cy="64" r="9"/>
    <path d="M76 60c2-8 14-10 17-2"/>
    <path d="M84 73v6"/>
    <path d="M72 82c4-3 20-3 24 0l3 48h-30Z" fill="#2b2724" fill-opacity=".85"/>
    <path d="M84 81l-3 10 3 4 3-4Z" fill="#fff"/>
    <path d="M73 130l1 56M95 130l-1 56M84 130v56" />
    <path d="M70 187h10M88 187h10" stroke-width="2.2"/>
    <path d="M96 90c6 8 10 14 12 20" />
    <!-- bride -->
    <circle cx="116" cy="68" r="8"/>
    <path d="M109 64c4-8 14-8 15 2 1 4-1 6-2 8"/>
    <path d="M122 62c14 4 26 30 30 70 2 24 4 44 6 56" stroke-width="1" opacity=".65"/>
    <path d="M112 78c2 6 4 10 4 22"/>
    <path d="M110 84c-1 6-1 12 0 18M122 84c1 6 1 12 0 18"/>
    <path d="M110 102c-6 30-14 60-22 86 12 4 46 4 58 0-8-26-16-56-24-86Z" fill="#fff"/>
    <path d="M112 102c-4 24-8 48-12 70M120 102c2 26 6 52 12 74" stroke-width=".8" opacity=".5"/>
    <path d="M108 110c-2 1-4 0-6-1"/>
    <!-- bouquet -->
    <circle cx="104" cy="112" r="2.5" fill="#fff"/>
    <circle cx="100" cy="110" r="2" fill="#fff"/>
    <circle cx="106" cy="108" r="1.8" fill="#fff"/>
    <path d="M60 196c30 4 90 4 110 0" stroke-width=".8" opacity=".35"/>
  </g>
</svg>
